<svg width="512" height="472" viewBox="0 0 512 472" fill="none" xmlns="http://www.w3.org/2000/svg">
<path d="M476.476 280.433C476.476 289.412 472.84 297.533 466.961 303.412C461.072 309.291 452.951 312.927 443.982 312.927H68.018C50.079 312.927 35.524 298.382 35.524 280.433C35.524 275.625 36.564 271.07 38.433 266.969C40.0485 263.428 42.2859 260.205 45.039 257.454C50.928 251.575 59.049 247.939 68.018 247.939H443.983C457.124 247.939 468.447 255.737 473.568 266.969C475.492 271.197 476.483 275.788 476.476 280.433Z" fill="#884D00"/>
<path d="M473.567 266.969C471.947 270.505 469.71 273.724 466.961 276.474C461.072 282.353 452.951 285.989 443.982 285.989H68.018C54.887 285.989 43.564 278.191 38.433 266.97C40.0485 263.429 42.2859 260.206 45.039 257.455C50.928 251.576 59.049 247.94 68.018 247.94H443.983C457.123 247.939 468.446 255.737 473.567 266.969Z" fill="#AA6100"/>
<path d="M504.425 339.158C504.425 381.025 485.042 412.135 453.71 432.77C422.368 453.416 379.077 463.587 331.26 463.587H180.74C85.107 463.587 7.575 422.892 7.575 339.158C7.575 334.492 8.737 330.067 10.837 326.088C12.615 322.694 15.069 319.634 18.049 317.028C24.513 311.362 33.463 307.857 43.331 307.857H468.668C483.082 307.857 495.505 315.331 501.162 326.089C503.263 330.067 504.425 334.491 504.425 339.158Z" fill="#FFA733"/>
<path d="M501.162 326.088C494.415 353.966 477.506 375.682 453.709 391.358C422.367 412.004 379.076 422.175 331.259 422.175H180.74C96.602 422.175 26.483 390.681 10.838 326.088C12.616 322.694 15.07 319.634 18.05 317.028C24.514 311.362 33.464 307.857 43.332 307.857H468.669C483.082 307.856 495.506 315.33 501.162 326.088Z" fill="#FFB655"/>
<path d="M394.173 234.303L310.116 318.36C308.049 320.425 305.79 322.289 303.369 323.925C285.572 335.975 261.189 334.127 245.422 318.36L161.365 234.303H394.173Z" fill="#EEBF00"/>
<path d="M394.173 234.303L310.116 318.36C308.049 320.425 305.79 322.289 303.369 323.925C296.756 321.675 290.752 317.928 285.824 312.976L207.15 234.302L394.173 234.303Z" fill="#FFD422"/>
<path d="M494.991 246.03C494.991 250.434 494.264 254.939 492.688 259.333C486.517 276.555 469.992 283.241 457.114 273.726L441.67 262.322C430.893 254.353 417.146 257.615 409.348 269.998L408.691 271.038C401.206 282.937 388.156 286.472 377.5 279.502L342.916 256.887C334.937 251.675 325.371 252.241 317.816 258.392L290.1 280.938C282.141 287.412 272 287.685 263.828 281.635L232.213 258.202C224.133 252.212 214.113 252.404 206.184 258.707L177.397 281.565C169.67 287.696 159.953 288.05 151.964 282.504L114.693 256.606C107.36 251.515 98.522 251.374 91.088 256.232L56.322 278.968C33.171 281.948 21.909 264.948 21.909 264.948C16.364 255.312 15.808 243.888 18.808 234.303C22.374 222.849 31.01 214.021 42.241 214.021H469.77C480.78 214.021 489.577 222.718 493.193 234.253C494.39 238.064 494.997 242.036 494.991 246.03Z" fill="#6DC82A"/>
<path d="M493.193 234.253C493.041 234.758 492.87 235.253 492.688 235.758C486.517 252.99 469.992 259.676 457.114 250.161L441.67 238.747C430.893 230.788 417.146 234.05 409.348 246.423L408.691 247.473C401.206 259.372 388.156 262.907 377.5 255.937L342.916 233.322C334.937 228.1 325.371 228.676 317.816 234.827L290.1 257.373C282.141 263.848 272 264.11 263.828 258.06L232.213 234.627C224.133 228.637 214.113 228.839 206.184 235.132L177.397 258C169.67 264.121 159.953 264.485 151.964 258.939L114.693 233.041C107.36 227.94 98.522 227.799 91.088 232.667L56.322 255.393C33.171 258.383 21.909 241.373 21.909 241.373C20.6262 239.134 19.5866 236.764 18.808 234.303C22.374 222.849 31.01 214.021 42.241 214.021H469.77C480.779 214.021 489.577 222.718 493.193 234.253Z" fill="#7ED63E"/>
<path d="M486.365 193.234C486.434 196.5 486.016 199.758 485.123 202.9C481.214 216.516 468.669 226.475 453.801 226.475C395.419 226.475 239.921 225.162 216.467 225.94C215.942 225.96 215.417 225.98 214.901 225.991C185.286 227.112 178.539 231.859 178.539 247.647V305.412C178.539 308.382 177.337 311.078 175.388 313.028C174.39 314.029 173.205 314.822 171.9 315.363C170.594 315.904 169.195 316.181 167.782 316.179C161.833 316.179 157.015 320.997 157.015 326.946V352.107C157.015 354.662 156.712 357.137 156.126 359.521C152.803 373.278 140.389 383.49 125.481 383.49H124.683C107.734 383.49 94.018 369.723 94.068 352.774L94.209 307.23C94.2113 305.567 94.5417 303.92 95.1813 302.384C95.8208 300.849 96.7569 299.454 97.936 298.281C99.1136 297.103 100.512 296.17 102.051 295.534C103.59 294.898 105.24 294.571 106.905 294.574C113.915 294.574 119.601 288.887 119.601 281.878V247.647C119.601 235.95 110.127 226.476 98.43 226.476H58.816C40.988 226.476 25.989 212.406 25.625 194.578C25.261 176.286 39.988 161.337 58.199 161.337H453.153C470.991 161.336 486.011 175.407 486.365 193.234Z" fill="#FF3501"/>
<path d="M486.365 193.234C486.434 196.5 486.016 199.758 485.123 202.9C423.317 202.839 275.636 201.617 252.829 202.365C221.881 203.385 214.901 208.021 214.901 224.081V225.99C185.286 227.111 178.539 231.858 178.539 247.646V305.411C178.539 308.381 177.337 311.077 175.388 313.027C174.39 314.028 173.205 314.821 171.9 315.362C170.594 315.903 169.195 316.18 167.782 316.178C161.833 316.178 157.015 320.996 157.015 326.945V352.106C157.015 354.661 156.712 357.136 156.126 359.52C141.521 357.167 130.38 344.47 130.43 329.198L130.571 283.664C130.572 282 130.902 280.353 131.542 278.818C132.182 277.282 133.118 275.888 134.298 274.715C135.476 273.537 136.874 272.604 138.413 271.968C139.952 271.332 141.602 271.005 143.267 271.008C150.277 271.008 155.963 265.321 155.963 258.312V224.081C155.963 212.384 146.489 202.91 134.792 202.91H95.178C77.35 202.91 62.351 188.84 61.987 171.012C61.9165 167.742 62.3386 164.48 63.239 161.336H453.153C470.991 161.336 486.011 175.407 486.365 193.234Z" fill="#FF5023"/>
<path d="M300.029 128.227L227.961 200.325C220.739 207.547 212.224 212.688 203.154 215.728C180.791 223.283 155.095 218.142 137.298 200.325L65.2 128.227H300.029Z" fill="#EEBF00"/>
<path d="M300.029 128.227L227.961 200.325C220.739 207.547 212.224 212.688 203.154 215.728C194.094 212.688 185.579 207.546 178.367 200.325L106.269 128.227H300.029Z" fill="#FFD422"/>
<path d="M504.425 138.368C504.425 138.903 504.405 139.429 504.375 139.954C503.996 146.514 501.217 152.705 496.567 157.347C494.077 159.843 491.119 161.822 487.862 163.171C484.605 164.519 481.113 165.211 477.588 165.205H34.413C19.595 165.205 7.576 153.185 7.576 138.368C7.576 106.208 22.485 81.996 44.999 63.785C63.27 48.997 86.562 38.16 110.945 30.21C179.165 7.999 256 8.413 256 8.413C256 8.413 504.425 7.06999 504.425 138.368Z" fill="#FFA733"/>
<path d="M504.425 138.368C504.425 138.903 504.405 139.429 504.375 139.954H88.956C74.138 139.954 62.119 127.934 62.119 113.117C62.119 80.957 77.028 56.745 99.542 38.534C103.206 35.5758 107.012 32.7982 110.946 30.211C179.165 7.999 256 8.413 256 8.413C256 8.413 504.425 7.06999 504.425 138.368Z" fill="#FFB655"/>
<path d="M389.528 55.363C393.836 59.922 393.632 67.11 389.073 71.418C384.514 75.726 377.326 75.522 373.018 70.963C368.71 66.405 360.781 50.609 365.341 46.301C369.901 41.994 385.22 50.803 389.528 55.363ZM329.328 111.491C331.576 117.346 328.652 123.916 322.797 126.164C316.942 128.412 310.372 125.488 308.124 119.633C305.876 113.778 304.554 96.154 310.41 93.906C316.265 91.658 327.08 105.636 329.328 111.491ZM267.357 64.78C267.357 71.052 262.272 76.137 256 76.137C249.728 76.137 244.643 71.052 244.643 64.78C244.643 58.508 249.728 41.582 256 41.582C262.272 41.582 267.357 58.507 267.357 64.78ZM204.912 118.608C203.343 124.68 197.149 128.333 191.076 126.764C185.004 125.195 181.351 119.001 182.92 112.928C184.489 106.856 193.644 91.739 199.717 93.308C205.79 94.875 206.48 112.535 204.912 118.608ZM142.432 69.138C139.698 74.782 132.905 77.142 127.26 74.407C121.616 71.673 119.256 64.88 121.991 59.235C124.725 53.591 136.68 40.574 142.326 43.309C147.97 46.044 145.167 63.494 142.432 69.138Z" fill="#FFF5CC"/>
<path d="M502.707 361.47C498.667 360.44 494.536 362.884 493.495 366.934C479.253 422.71 418.599 456.011 331.249 456.011H180.74C137.358 456.011 99.319 447.526 70.714 431.467C68.9614 430.487 66.8915 430.241 64.9582 430.785C63.0249 431.328 61.3861 432.616 60.401 434.366C59.4205 436.119 59.1751 438.188 59.7186 440.122C60.262 442.055 61.55 443.694 63.3 444.679C94.157 462.002 134.772 471.163 180.74 471.163H331.25C407.471 471.163 489.316 444.53 508.182 370.682C508.677 368.734 508.378 366.67 507.351 364.943C506.325 363.215 504.654 361.966 502.707 361.47ZM285.514 274.904L285.522 274.898C285.519 274.9 285.516 274.902 285.514 274.904Z" fill="black"/>
<path d="M478.195 301.247C481.799 295.363 483.81 288.642 484.031 281.746C506.275 268.899 509.215 231.053 488.748 213.698C495.919 201.081 496.013 184.636 486.92 171.498C501.374 167.417 512 154.105 512 138.368C512 51.602 412.865 17.811 326.442 6.08C324.45 5.80825 322.432 6.33881 320.832 7.55497C319.231 8.77112 318.179 10.5733 317.907 12.565C317.64 14.5565 318.173 16.5727 319.391 18.171C320.609 19.7693 322.411 20.8191 324.402 21.09C400.938 31.484 496.85 60.798 496.85 138.368C496.85 148.984 488.204 157.63 477.588 157.63H34.414C23.798 157.63 15.152 148.984 15.152 138.368C15.152 88.643 53.797 53.008 130.016 32.453C170.514 21.53 220.767 16.087 256.294 15.989C257.95 15.989 273.031 16.04 294.585 17.837C295.584 17.9336 296.591 17.8309 297.55 17.5348C298.509 17.2388 299.399 16.7553 300.169 16.1124C300.94 15.4696 301.574 14.6802 302.037 13.79C302.5 12.8998 302.781 11.9265 302.865 10.9267C302.949 9.92694 302.833 8.92049 302.524 7.96579C302.216 7.01109 301.721 6.12716 301.068 5.36527C300.415 4.60339 299.618 3.97874 298.722 3.52756C297.826 3.07638 296.849 2.80766 295.848 2.737C282.753 1.647 268.904 0.902997 255.708 0.837997C189.656 0.837997 92.021 16.008 40.232 57.896C13.535 79.491 0 106.571 0 138.368C0 154.044 10.545 167.306 24.908 171.447C16.515 183.815 15.619 200.242 23.322 213.577C9.197 225.576 4.591 250.025 15.343 268.726C17.313 271.928 22.141 276.918 27.949 280.483C27.9567 287.808 29.9818 294.99 33.802 301.24C14.483 305.149 0 320.663 0 339.158C0 374.187 12.565 403.428 37.332 426.074C38.7247 427.349 40.5448 428.055 42.433 428.054C49.317 428.054 52.64 419.544 47.554 414.893C26.06 395.237 15.151 369.753 15.151 339.159C15.151 326.079 27.797 315.433 43.332 315.433H86.603L86.492 352.745C86.429 373.983 103.593 391.067 124.682 391.067H125.48C147.045 391.067 164.59 373.593 164.59 352.109V326.948C164.59 326.101 164.926 325.29 165.525 324.691C166.124 324.092 166.935 323.756 167.782 323.756C174.196 323.756 179.852 320.443 183.125 315.433H230.426C234.911 318.746 247.994 339.321 276.414 339.321C304.767 339.321 317.944 318.733 322.412 315.433H468.669C484.052 315.433 496.698 325.968 496.85 338.927C496.89 343.078 500.274 346.412 504.415 346.412H504.506C508.688 346.372 512.041 342.937 512.001 338.756C511.783 320.477 497.319 305.143 478.195 301.247ZM266.202 172.78H466.78C488.836 186.379 478.236 218.364 453.801 218.364C291.009 218.364 441.115 217.944 216.203 218.364C231.391 210.289 236.114 201.837 266.202 172.78ZM28.312 260.888C21.294 248.358 24.898 232.1 33.221 225.061C40.251 230.667 49.17 234.051 58.816 234.051H98.43C105.632 234.051 111.541 239.677 111.995 246.768C108.985 245.687 105.81 245.134 102.612 245.132C91.199 245.132 86.531 250.161 53.705 271.626C42.555 272.528 33.269 267.545 28.312 260.888ZM87.885 300.28H52.997C48.505 296.873 45.194 291.989 43.817 286.351C47.861 286.986 57.035 287.544 60.473 285.301L95.239 262.575C104.165 256.73 111.342 263.717 112.026 263.979V281.877C112.026 283.235 111.486 284.538 110.526 285.498C109.566 286.458 108.263 286.998 106.905 286.998C98.198 286.998 90.744 292.533 87.885 300.28ZM170.963 276.837V305.412C170.964 306.257 170.629 307.068 170.032 307.666C169.436 308.265 168.626 308.602 167.781 308.604C157.633 308.604 149.438 316.88 149.438 326.947V352.108C149.438 373.707 122.817 383.629 108.359 369.138C100.456 361.198 101.651 351.108 101.643 352.341L101.783 307.252C101.791 305.898 102.333 304.602 103.293 303.646C104.252 302.691 105.55 302.153 106.904 302.151C117.999 302.151 127.176 293.137 127.176 281.879V247.648C127.176 236.133 120.368 226.174 110.56 221.599C101.006 217.097 95.343 219.631 58.815 218.902C33.397 218.902 23.528 186.239 44.846 172.783H99.036L131.934 205.681C144.662 218.419 161.339 225.775 179.207 226.607C167.979 235.665 171.625 248.203 170.963 276.837ZM142.651 194.971L120.46 172.78H244.788L222.607 194.971C200.451 217.107 164.701 217.041 142.651 194.971ZM186.114 300.28V284.311L193.467 278.473L215.274 300.28H186.114ZM300.746 315.431C285.744 327.891 263.473 327.053 249.425 313.007L205.407 268.989C208.101 267.649 216.652 256.091 227.709 264.282L259.324 287.715C270.096 295.723 284.093 295.589 294.878 286.816L322.594 264.271C327.624 260.18 333.523 259.796 338.775 263.231L348.037 269.281C295.797 320.418 302.189 314.243 300.746 315.431ZM459.011 300.28H337.562L360.44 277.402L369.884 283.573C371.611 284.356 380.935 293.062 394.893 289.997C408.823 286.954 415.481 274.338 415.761 274.028C420.839 265.963 429.516 262.752 437.174 268.412C449.649 276.651 455.714 285.008 468.355 285.634C467.092 291.579 463.691 296.732 459.011 300.28ZM461.618 267.635C445.5 255.732 446.137 256.172 445.225 255.545C431.301 246.036 413.111 249.863 402.934 265.959C402.673 266.262 398.882 273.62 391.672 275.191C384.999 276.661 384.263 274.89 347.058 250.556C336.25 243.486 323.221 244.233 313.039 252.516C297.206 265.394 285.471 274.936 285.764 274.701C285.543 274.881 285.62 274.818 285.602 274.832L285.564 274.863C285.542 274.88 285.52 274.898 285.499 274.916L285.514 274.904L285.479 274.933C285.423 274.978 285.337 275.049 285.323 275.059C280.061 279.342 273.707 279.523 268.344 275.544C236.77 252.141 232.025 246.357 219.73 246.272C209.326 246.198 202.769 251.307 194.63 258.211L186.115 264.968V247.645C186.115 227.593 190.419 234.05 453.801 234.05C463.063 234.05 471.831 230.939 478.931 225.222C486.332 231.616 489.837 244.875 485.567 256.766C481.481 268.156 471.003 274.557 461.618 267.635Z" fill="black"/>
<path d="M360.139 40.795C355.641 45.043 355.187 51.93 358.788 61.264C363.053 72.322 369.49 82.095 381.288 82.095C397.719 82.095 406.472 62.263 395.034 50.16V50.159C390.733 45.606 370.303 31.187 360.139 40.795ZM381.167 66.942C380.671 66.9288 380.182 66.8175 379.728 66.6144C379.275 66.4114 378.866 66.1207 378.526 65.759C376.269 63.369 373.328 57.478 372.106 53.458C376.049 54.906 381.765 58.174 384.024 60.564C386.326 63.004 384.533 67.023 381.167 66.942ZM301.053 122.35C301.938 124.674 303.276 126.8 304.988 128.604C306.7 130.408 308.753 131.855 311.028 132.86C326.3 139.655 342.467 124.565 336.4 108.775V108.776C334.155 102.929 320.757 81.82 307.694 86.834C294.634 91.85 298.807 116.503 301.053 122.35ZM313.94 103.099C317.035 105.939 321.076 111.137 322.256 114.207C322.603 115.141 322.567 116.174 322.157 117.082C321.747 117.989 320.996 118.699 320.066 119.056C319.137 119.413 318.104 119.388 317.192 118.988C316.28 118.588 315.562 117.845 315.195 116.919C314.017 113.849 313.541 107.282 313.94 103.099ZM237.067 64.78C237.067 75.22 245.56 83.713 256 83.713C266.44 83.713 274.933 75.22 274.933 64.78C274.933 58.517 269.991 34.006 256 34.006C242.009 34.006 237.067 58.515 237.067 64.78ZM256 68.561C254.997 68.5597 254.036 68.1608 253.327 67.4518C252.618 66.7428 252.219 65.7816 252.218 64.779C252.218 61.491 254.128 55.189 256 51.428C257.873 55.189 259.782 61.491 259.782 64.779C259.781 65.7816 259.382 66.7428 258.673 67.4518C257.964 68.1608 257.003 68.5597 256 68.561ZM183.56 95.717C176.669 104.942 171.735 115.42 177.606 125.381C186.159 139.893 208.053 136.734 212.246 120.5C213.813 114.435 215.158 89.471 201.611 85.97C195.621 84.426 189.548 87.703 183.56 95.717ZM197.577 116.713C197.515 116.814 197.305 118.16 195.836 119.026C192.931 120.741 189.419 118.059 190.255 114.822C191.077 111.639 194.502 106.014 197.255 102.842C198.127 106.951 198.399 113.529 197.577 116.713ZM115.173 55.934C109.081 68.511 118.318 83.119 132.18 83.119C139.214 83.119 145.982 79.185 149.249 72.442C152.55 65.63 157.612 42.301 145.628 36.495C133.89 30.805 118.686 48.681 115.173 55.934ZM135.615 65.835C135.177 66.7366 134.399 67.4277 133.452 67.7567C132.505 68.0857 131.467 68.0257 130.564 67.59C129.662 67.1517 128.971 66.3736 128.642 65.4263C128.313 64.4791 128.373 63.44 128.809 62.537C130.242 59.579 134.709 54.739 138.033 52.171C138.076 56.372 137.048 62.877 135.615 65.835Z" fill="black"/>
</svg>
