<svg width="512" height="512" viewBox="0 0 512 512" fill="none" xmlns="http://www.w3.org/2000/svg">
<g clip-path="url(#clip0_2_23)">
<path d="M234.128 121.6C234.128 66.816 189.712 22.4 134.928 22.4C80.144 22.4 35.728 66.816 35.728 121.6C35.728 171.753 73.0741 213.582 121.994 219.961C180.963 227.643 234.128 181.947 234.128 121.6Z" fill="#FFE773"/>
<path d="M143.327 71.0133C116.591 81.2629 94.8437 103.005 84.5227 129.713C74.416 155.866 35.5648 149.041 35.7301 121.004C36.0501 66.8021 80.2741 22.7765 134.225 22.4021C162.358 22.2069 169.596 60.9418 143.327 71.0133Z" fill="#FFF0A6"/>
<path d="M458.339 121.6C465.523 121.6 469.492 129.936 464.963 135.513C415.243 196.738 312.723 322.956 313.046 322.558C309.204 327.289 301.985 327.287 298.143 322.558L146.227 135.513C141.698 129.936 145.666 121.6 152.851 121.6H458.339Z" fill="#FF6D7A"/>
<path d="M464.965 135.509C422.796 187.438 453.106 150.115 313.051 322.56C309.2 327.285 301.989 327.285 298.139 322.56L253.21 267.241C247.454 260.154 250.763 249.518 259.511 246.907C311.153 231.491 346.546 185.941 351.451 133.218C352.063 126.636 357.575 121.6 364.186 121.6H458.341C465.52 121.6 469.488 129.931 464.965 135.509Z" fill="#FE4F60"/>
<path d="M464.963 135.513L432.421 175.584C395.643 195.349 366.501 198.325 346.821 197.419C309.073 196.069 286.448 177.6 242.661 181.333C221.136 183.168 204.123 189.461 193.776 194.059L146.227 135.513C141.698 129.936 145.666 121.6 152.851 121.6H458.338C465.523 121.6 469.492 129.936 464.963 135.513Z" fill="#E3F7FC"/>
<path d="M464.965 135.509L432.421 175.584C399.597 193.225 365.377 201.76 329.296 195.488C341.665 177.135 349.36 155.695 351.451 133.218C352.063 126.636 357.575 121.6 364.186 121.6H458.341C465.52 121.6 469.488 129.931 464.965 135.509Z" fill="#CAF1FC"/>
<path d="M414.395 8.53333C436.187 8.53333 453.861 26.208 453.861 48C453.861 76.7872 424.025 95.7184 398.128 83.968V83.9573C384.443 77.76 374.928 63.9893 374.928 48C374.928 26.208 392.603 8.53333 414.395 8.53333Z" fill="#BEFA91"/>
<path d="M434.74 35.1797C417.37 36.1173 402.149 48.8341 398.235 65.8059C396.319 74.1131 385.209 75.889 380.743 68.6282C375.94 60.8192 373.967 51.4602 375.372 42.048C379.901 11.7088 416.821 -2.38935 440.42 18.3338C446.884 24.0096 443.33 34.7157 434.74 35.1797Z" fill="#DAFFBF"/>
<path d="M476.261 113.067H435.728C433.465 113.067 431.294 113.966 429.694 115.566C428.094 117.166 427.195 119.337 427.195 121.6C427.195 123.863 428.094 126.034 429.694 127.634C431.294 129.234 433.465 130.133 435.728 130.133H458.337L426.908 168.831C404.07 180.887 381.661 187.59 360.079 188.815L402.703 94.5621C433.108 102.187 462.395 79.0496 462.395 48C462.395 21.5328 440.862 -1.52588e-05 414.395 -1.52588e-05C387.927 -1.52588e-05 366.395 21.5328 366.395 48C366.395 50.2632 367.294 52.4337 368.894 54.034C370.494 55.6343 372.665 56.5333 374.928 56.5333C377.191 56.5333 379.362 55.6343 380.962 54.034C382.562 52.4337 383.461 50.2632 383.461 48C383.461 30.9429 397.338 17.0667 414.395 17.0667C431.452 17.0667 445.328 30.9429 445.328 48C445.328 68.2987 425.312 85.2971 402.08 76.4053C397.643 74.0907 392.343 76.0512 390.358 80.4427L375.605 113.067H242.324C237.959 57.6363 191.46 13.8667 134.928 13.8667C75.5243 13.8667 27.1947 62.1952 27.1947 121.6C27.1947 181.005 75.5243 229.333 134.928 229.333C137.191 229.333 139.362 228.434 140.962 226.834C142.562 225.234 143.461 223.063 143.461 220.8C143.461 218.537 142.562 216.366 140.962 214.766C139.362 213.166 137.191 212.267 134.928 212.267C84.9344 212.267 44.2613 171.594 44.2613 121.6C44.2613 71.6064 84.9344 30.9333 134.928 30.9333C182.043 30.9333 220.864 67.0613 225.181 113.067H134.928C127.758 113.067 123.782 121.412 128.304 126.979L297.061 334.762V494.933H229.861C227.598 494.933 225.428 495.832 223.827 497.433C222.227 499.033 221.328 501.203 221.328 503.467C221.328 505.73 222.227 507.9 223.827 509.501C225.428 511.101 227.598 512 229.861 512H381.328C383.591 512 385.762 511.101 387.362 509.501C388.962 507.9 389.861 505.73 389.861 503.467C389.861 501.203 388.962 499.033 387.362 497.433C385.762 495.832 383.591 494.933 381.328 494.933H314.128V334.762L482.885 126.979C487.407 121.412 483.431 113.067 476.261 113.067ZM367.887 130.133L341.491 188.501C307.253 185.383 284.98 169.154 241.936 172.831C239.683 173.026 237.599 174.107 236.143 175.837C234.687 177.567 233.977 179.805 234.169 182.058C234.361 184.312 235.44 186.397 237.169 187.855C238.897 189.313 241.134 190.026 243.388 189.836C280.655 186.653 300.801 200.457 334.099 204.846L330.886 211.951C330.415 212.973 330.15 214.079 330.108 215.204C330.065 216.329 330.246 217.452 330.64 218.507C331.033 219.562 331.631 220.529 332.4 221.351C333.169 222.174 334.093 222.836 335.119 223.3C336.145 223.764 337.252 224.021 338.378 224.055C339.503 224.089 340.624 223.9 341.676 223.498C342.728 223.097 343.691 222.491 344.507 221.717C345.324 220.942 345.98 220.013 346.436 218.983L352.268 206.089C369.921 206.162 387.101 202.972 403.702 197.403L305.594 318.198L152.852 130.133H367.887ZM126.395 74.6667V64C126.395 61.7368 127.294 59.5663 128.894 57.966C130.494 56.3657 132.665 55.4667 134.928 55.4667C137.191 55.4667 139.362 56.3657 140.962 57.966C142.562 59.5663 143.461 61.7368 143.461 64V74.6667C143.461 76.9298 142.562 79.1003 140.962 80.7006C139.362 82.3009 137.191 83.2 134.928 83.2C132.665 83.2 130.494 82.3009 128.894 80.7006C127.294 79.1003 126.395 76.9298 126.395 74.6667ZM87.9947 113.067C90.2578 113.067 92.4283 113.966 94.0286 115.566C95.6289 117.166 96.528 119.337 96.528 121.6C96.528 123.863 95.6289 126.034 94.0286 127.634C92.4283 129.234 90.2578 130.133 87.9947 130.133H77.328C75.0648 130.133 72.8943 129.234 71.294 127.634C69.6937 126.034 68.7947 123.863 68.7947 121.6C68.7947 119.337 69.6937 117.166 71.294 115.566C72.8943 113.966 75.0648 113.067 77.328 113.067H87.9947Z" fill="black"/>
</g>
<defs>
<clipPath id="clip0_2_23">
<rect width="512" height="512" fill="white"/>
</clipPath>
</defs>
</svg>
