<svg width="512" height="512" viewBox="0 0 512 512" fill="none" xmlns="http://www.w3.org/2000/svg">
<g clip-path="url(#clip0_0_3)">
<path d="M459.125 360.118L420.376 373.228L35.724 503.348C18.973 509.012 2.992 493.031 8.663 476.287L9.688 473.254L138.813 91.738L151.923 52.989L201.42 45.918L362.152 150.053L466.196 310.621L463.459 329.762L459.125 360.118Z" fill="#F9D11F"/>
<path d="M459.125 360.118L420.376 373.228L35.724 503.348C18.973 509.012 2.992 493.031 8.663 476.287L9.688 473.254C19.015 477.294 29.5129 477.713 39.132 474.428L463.46 329.762L459.125 360.118Z" fill="#FFA402"/>
<path d="M459.125 360.118L420.376 373.228C418.293 364.374 415.821 355.616 412.966 346.98C398.343 302.645 370.009 249.633 316.227 195.851C251.35 131.003 187.576 103.164 138.814 91.738L151.924 52.989L201.421 45.918L362.153 150.053L466.197 310.621L463.46 329.762L459.125 360.118Z" fill="#FDEDA5"/>
<path d="M459.125 360.118L420.376 373.228C418.293 364.374 415.821 355.616 412.966 346.98L463.46 329.762L459.125 360.118Z" fill="#FBDF63"/>
<path d="M190.216 238.38C212.16 238.38 229.95 220.595 229.95 198.656C229.95 176.717 212.16 158.932 190.216 158.932C168.272 158.932 150.482 176.717 150.482 198.656C150.482 220.595 168.272 238.38 190.216 238.38Z" fill="#ED2061"/>
<path d="M164.787 386.855C186.731 386.855 204.521 369.07 204.521 347.131C204.521 325.192 186.731 307.407 164.787 307.407C142.843 307.407 125.053 325.192 125.053 347.131C125.053 369.07 142.843 386.855 164.787 386.855Z" fill="#ED2061"/>
<path d="M353.462 395.862L286.011 418.51C279.463 411.986 275.406 403.375 274.542 394.172C273.474 382.795 277.293 371.043 286.004 362.331C301.525 346.824 326.684 346.824 342.198 362.338C344.287 364.421 346.137 366.731 347.713 369.225C352.805 377.272 354.721 386.741 353.462 395.862Z" fill="#ED2061"/>
<path d="M98.109 436.472C87.784 446.794 68.197 443.948 68.197 443.948C68.197 443.948 65.35 424.366 75.675 414.044C86 403.722 105.587 406.568 105.587 406.568C105.587 406.568 108.434 426.15 98.109 436.472ZM278.301 290.674C285.999 303.078 278.76 321.495 278.76 321.495C278.76 321.495 259.04 319.8 251.342 307.396C243.644 294.992 250.883 276.575 250.883 276.575C250.883 276.575 270.603 278.27 278.301 290.674Z" fill="#68C044"/>
<path d="M487.558 377.294C487.268 377.372 486.971 377.442 486.667 377.506C478.967 379.125 471.372 376.58 466.196 371.404C463.111 368.337 460.999 364.429 460.122 360.168C450.435 314.008 422.759 242.86 345.938 166.026C269.098 89.228 197.92 61.566 151.746 51.879C139.626 49.333 131.862 37.454 134.408 25.334C134.472 25.044 134.542 24.747 134.606 24.457C137.526 12.853 149.13 5.507 160.953 7.996C213.088 18.935 293.005 49.722 377.646 134.32C462.28 218.953 493.074 298.848 504.013 350.969C506.487 362.777 499.169 374.38 487.558 377.294Z" fill="#F79E60"/>
<path d="M487.558 377.294C488.364 374.098 488.47 370.669 487.749 367.232C476.81 315.112 446.016 235.216 361.382 150.583C276.741 65.986 196.824 35.198 144.689 24.26C141.357 23.5522 137.907 23.62 134.606 24.458C137.526 12.854 149.13 5.508 160.953 7.997C213.088 18.936 293.005 49.723 377.646 134.321C462.28 218.954 493.074 298.849 504.013 350.97C506.487 362.777 499.169 374.38 487.558 377.294Z" fill="#D77D41"/>
<path d="M353.462 395.862L286.011 418.51C279.463 411.986 275.406 403.375 274.542 394.172L347.713 369.226C352.805 377.272 354.721 386.741 353.462 395.862Z" fill="#C71E54"/>
<path d="M511.352 349.424C500.207 296.306 468.883 214.949 382.948 129.008C296.993 43.1 215.617 11.784 162.488 0.642002C146.34 -2.751 130.444 7.633 127.056 23.78C125.415 31.603 126.919 39.595 131.29 46.287C134.144 50.6737 138.104 54.2297 142.772 56.596L54.277 318.077C53.9517 319.012 53.8149 320.003 53.8744 320.991C53.9338 321.98 54.1884 322.946 54.6235 323.836C55.0586 324.725 55.6655 325.52 56.4092 326.174C57.1529 326.827 58.0188 327.328 58.9567 327.645C59.8947 327.962 60.8862 328.091 61.8741 328.023C62.862 327.955 63.8267 327.693 64.7125 327.25C65.5984 326.808 66.3878 326.194 67.0353 325.445C67.6828 324.696 68.1755 323.826 68.485 322.885L143.693 100.664C203.342 116.052 259.573 149.829 310.923 201.148C330.338 220.566 347.499 241.046 361.928 262.02C362.486 262.832 363.198 263.526 364.024 264.063C364.85 264.6 365.774 264.968 366.743 265.147C367.712 265.326 368.707 265.312 369.67 265.107C370.633 264.901 371.547 264.507 372.358 263.948C373.169 263.39 373.863 262.677 374.399 261.851C374.935 261.025 375.303 260.101 375.482 259.132C375.661 258.164 375.648 257.169 375.442 256.206C375.237 255.243 374.844 254.329 374.286 253.518C359.363 231.826 341.645 210.67 321.622 190.635L321.594 190.604L321.584 190.594L321.458 190.468L321.406 190.416L321.383 190.396C268.451 137.538 210.331 102.598 148.513 86.423L157.19 60.784C168.572 63.495 180.144 67.018 191.691 71.315C193.548 71.9776 195.592 71.8822 197.379 71.0495C199.166 70.2169 200.554 68.7139 201.242 66.8659C201.929 65.0178 201.861 62.9734 201.053 61.1749C200.245 59.3764 198.761 57.9685 196.922 57.256C182.305 51.817 167.622 47.534 153.278 44.525C151.358 44.1283 149.536 43.3545 147.917 42.2486C146.298 41.1426 144.915 39.7264 143.847 38.082C142.77 36.4441 142.029 34.6089 141.667 32.6825C141.305 30.7562 141.328 28.7772 141.736 26.86C143.425 18.808 151.355 13.632 159.408 15.322C210.545 26.047 288.998 56.317 372.343 139.615C455.667 222.946 485.945 301.379 496.671 352.504C497.49 356.404 496.74 360.388 494.561 363.725C493.493 365.369 492.109 366.785 490.49 367.891C488.871 368.998 487.049 369.772 485.129 370.169C482.697 370.682 480.176 370.578 477.794 369.868C475.413 369.157 473.247 367.863 471.493 366.102C469.448 364.057 468.045 361.459 467.457 358.628C457.561 311.467 429.365 238.85 351.234 160.714C313.023 122.523 272.466 92.646 230.69 71.912C226.979 70.067 222.479 71.586 220.638 75.296C218.797 79.006 220.312 83.507 224.022 85.348C264.338 105.357 303.571 134.284 340.629 171.321C412.437 243.133 440.511 309.672 451.245 354.867L425.67 363.518C418.591 336.57 407.741 309.898 393.335 284.12C392.855 283.26 392.21 282.503 391.437 281.893C390.664 281.282 389.778 280.83 388.83 280.561C387.883 280.293 386.891 280.214 385.913 280.329C384.935 280.445 383.989 280.751 383.129 281.232C382.269 281.712 381.513 282.358 380.902 283.131C380.292 283.904 379.839 284.789 379.571 285.737C379.303 286.685 379.224 287.676 379.339 288.654C379.454 289.632 379.76 290.578 380.241 291.438C394.21 316.431 404.679 342.269 411.428 368.335L361.075 385.368C359.962 374.751 355.277 364.804 347.499 357.028C329.083 338.615 299.116 338.615 280.7 357.028C271.778 365.948 266.865 377.808 266.865 390.423C266.865 399.202 269.251 407.612 273.706 414.924L33.307 496.247C28.203 497.973 22.883 496.73 19.075 492.921C15.269 489.114 14.027 483.799 15.752 478.7L57.422 355.574C57.7378 354.641 57.8667 353.655 57.8014 352.672C57.7361 351.689 57.4778 350.729 57.0414 349.846C56.6049 348.963 55.9989 348.175 55.2577 347.526C54.5166 346.877 53.655 346.381 52.722 346.065C51.789 345.749 50.803 345.62 49.8202 345.686C48.8374 345.751 47.8771 346.009 46.9941 346.446C46.1111 346.882 45.3227 347.488 44.674 348.229C44.0252 348.97 43.5288 349.832 43.213 350.765L1.544 473.89C-1.998 484.356 0.655004 495.712 8.467 503.526C13.994 509.054 21.291 512 28.794 512C31.9643 511.996 35.1128 511.475 38.115 510.456L455.476 369.273C456.884 372.018 458.711 374.527 460.89 376.71C466.583 382.401 474.179 385.493 482.03 385.493C484.082 385.493 486.153 385.281 488.21 384.85C496.033 383.209 502.749 378.62 507.121 371.93C511.491 365.239 512.994 357.245 511.352 349.424ZM288.45 409.938C284.182 404.355 281.865 397.569 281.865 390.425C281.865 381.817 285.218 373.725 291.306 367.638C303.875 355.073 324.325 355.073 336.894 367.638C343.019 373.762 346.331 381.859 346.329 390.359L288.45 409.938Z" fill="black"/>
<path d="M156.81 165.256C147.888 174.176 142.974 186.036 142.974 198.651C142.974 211.266 147.888 223.125 156.81 232.045C166.018 241.251 178.114 245.855 190.21 245.855C202.306 245.855 214.401 241.251 223.61 232.045C232.532 223.126 237.445 211.266 237.445 198.651C237.445 186.036 232.532 174.177 223.61 165.256C205.193 146.843 175.226 146.843 156.81 165.256ZM213.004 221.436C200.436 234.001 179.986 234.001 167.416 221.436C161.328 215.35 157.975 207.258 157.975 198.65C157.975 190.042 161.328 181.95 167.416 175.863C173.701 169.58 181.954 166.439 190.21 166.439C198.464 166.439 206.721 169.582 213.004 175.863C219.092 181.95 222.445 190.042 222.445 198.65C222.445 207.258 219.092 215.35 213.004 221.436ZM131.379 380.525C140.587 389.731 152.683 394.335 164.779 394.335C176.875 394.335 188.971 389.731 198.179 380.525C199.586 379.119 200.376 377.211 200.376 375.222C200.376 373.233 199.586 371.325 198.18 369.918C196.774 368.511 194.866 367.721 192.877 367.721C190.888 367.721 188.98 368.511 187.573 369.917C175.004 382.483 154.553 382.481 141.985 369.917C135.897 363.83 132.544 355.738 132.544 347.13C132.544 338.523 135.897 330.431 141.985 324.344C154.553 311.78 175.005 311.78 187.573 324.344C192.705 329.475 195.885 335.982 196.77 343.162C197.277 347.273 201.017 350.205 205.132 349.689C207.106 349.446 208.903 348.428 210.127 346.86C211.351 345.292 211.902 343.302 211.659 341.328C210.361 330.795 205.7 321.255 198.18 313.736C179.763 295.323 149.797 295.324 131.38 313.736C122.458 322.656 117.545 334.516 117.545 347.13C117.544 359.745 122.457 371.605 131.379 380.525ZM67.11 451.374C67.525 451.435 70.295 451.813 74.285 451.813C75.988 451.813 77.913 451.745 79.971 451.551C89.828 450.629 97.93 447.25 103.403 441.778C108.876 436.306 112.256 428.205 113.179 418.35C113.823 411.471 113.086 406.082 113 405.49C112.767 403.89 112.024 402.409 110.881 401.266C109.738 400.123 108.256 399.38 106.656 399.147C106.065 399.061 100.674 398.323 93.795 398.969C83.938 399.891 75.836 403.27 70.363 408.742C64.89 414.214 61.509 422.315 60.587 432.17C59.943 439.049 60.679 444.438 60.765 445.03C60.9979 446.63 61.7414 448.112 62.8847 449.255C64.0281 450.398 65.5101 451.141 67.11 451.374ZM80.97 419.351C85.273 415.049 92.766 413.84 98.441 413.707C98.308 419.386 97.098 426.872 92.798 431.171C88.495 435.473 81.002 436.682 75.326 436.815C75.459 431.136 76.67 423.65 80.97 419.351ZM251.52 269.1C249.909 268.961 248.297 269.346 246.923 270.198C245.55 271.05 244.488 272.324 243.898 273.829C243.679 274.386 241.733 279.465 240.791 286.309C239.441 296.115 240.884 304.773 244.964 311.35C249.044 317.924 256.162 323.063 265.55 326.208C272.102 328.403 277.517 328.916 278.113 328.968C279.724 329.106 281.336 328.721 282.71 327.868C284.083 327.016 285.145 325.743 285.736 324.238C285.955 323.681 287.901 318.603 288.843 311.758C290.194 301.952 288.75 293.294 284.67 286.717C280.59 280.143 273.471 275.005 264.084 271.859C257.531 269.663 252.116 269.152 251.52 269.1ZM271.923 294.627C275.13 299.794 274.598 307.364 273.434 312.917C267.932 311.492 260.915 308.607 257.709 303.439C254.502 298.272 255.034 290.703 256.198 285.15C261.7 286.574 268.717 289.46 271.923 294.627ZM127.299 251.185C125.625 252.259 124.446 253.954 124.021 255.897C123.596 257.84 123.961 259.873 125.035 261.547L136.478 279.386C137.009 280.215 137.699 280.932 138.508 281.495C139.316 282.058 140.228 282.455 141.19 282.666C142.153 282.876 143.147 282.894 144.117 282.72C145.086 282.545 146.012 282.181 146.841 281.649C148.515 280.575 149.694 278.88 150.119 276.937C150.544 274.994 150.179 272.961 149.105 271.287L137.662 253.448C136.588 251.774 134.892 250.595 132.949 250.171C131.006 249.747 128.973 250.111 127.299 251.185ZM283.281 249.041L299.377 262.831C300.734 263.997 302.465 264.638 304.254 264.636C305.787 264.636 307.283 264.167 308.541 263.292C309.799 262.416 310.759 261.176 311.291 259.739C311.823 258.301 311.902 256.735 311.517 255.251C311.132 253.768 310.302 252.438 309.138 251.44L293.042 237.65C292.294 237.009 291.427 236.522 290.491 236.216C289.555 235.91 288.568 235.791 287.586 235.867C286.604 235.943 285.646 236.211 284.768 236.657C283.89 237.103 283.108 237.717 282.467 238.465C281.826 239.213 281.338 240.08 281.032 241.016C280.726 241.952 280.607 242.94 280.683 243.922C280.759 244.904 281.027 245.861 281.473 246.74C281.918 247.618 282.533 248.4 283.281 249.041ZM229.687 374.276L227.669 393.611C227.56 394.657 227.672 395.714 227.998 396.713C228.324 397.713 228.856 398.633 229.56 399.414C230.264 400.195 231.125 400.819 232.086 401.245C233.047 401.672 234.087 401.892 235.138 401.891C236.991 401.889 238.777 401.2 240.153 399.959C241.529 398.718 242.396 397.011 242.588 395.168L244.606 375.833C244.812 373.855 244.224 371.875 242.971 370.33C241.719 368.785 239.903 367.801 237.925 367.594C235.947 367.388 233.967 367.976 232.423 369.229C230.878 370.482 229.894 372.298 229.687 374.276Z" fill="black"/>
</g>
<defs>
<clipPath id="clip0_0_3">
<rect width="512" height="512" fill="white"/>
</clipPath>
</defs>
</svg>
