<svg width="512" height="512" viewBox="0 0 512 512" fill="none" xmlns="http://www.w3.org/2000/svg">
<path d="M245.193 89.838C246.532 108.954 254.827 126.917 268.51 140.333C282.193 153.748 300.317 161.687 319.455 162.649C338.594 163.61 357.421 157.528 372.38 145.551C387.339 133.575 397.393 116.533 400.641 97.648C401.033 95.4037 400.909 93.0996 400.28 90.91C399.65 88.7205 398.53 86.7028 397.006 85.0097C395.481 83.3165 393.592 81.9922 391.48 81.137C389.369 80.2817 387.09 79.9179 384.817 80.073L245.193 89.838Z" fill="#FFC443"/>
<path d="M468.573 119.167C369.226 102.367 312.311 159.059 328.873 258.306L328.954 258.787L329.435 258.868C428.681 275.429 485.368 218.514 468.573 119.167Z" fill="#8BC932"/>
<path d="M311.5 283.74C310.018 283.739 308.569 283.298 307.337 282.474C306.105 281.65 305.144 280.479 304.577 279.109C304.01 277.74 303.862 276.233 304.15 274.779C304.439 273.325 305.152 271.989 306.2 270.94L437.095 140.04C438.502 138.634 440.41 137.844 442.399 137.844C444.388 137.845 446.296 138.635 447.702 140.042C449.108 141.449 449.898 143.357 449.898 145.346C449.897 147.335 449.107 149.243 447.7 150.649L316.8 281.543C316.105 282.24 315.279 282.793 314.369 283.17C313.46 283.547 312.485 283.741 311.5 283.74Z" fill="#80B524"/>
<path d="M461.24 205C441.59 248.86 394.72 269.76 329.43 258.87L328.95 258.79L328.87 258.31C325.62 238.82 325.2 220.97 327.38 205H461.24Z" fill="#80B524"/>
<path d="M396.5 252.016C415.83 252.016 431.5 236.346 431.5 217.016C431.5 197.686 415.83 182.016 396.5 182.016C377.17 182.016 361.5 197.686 361.5 217.016C361.5 236.346 377.17 252.016 396.5 252.016Z" fill="#FFAC3E"/>
<path d="M431.5 217.02C431.496 222.131 430.374 227.179 428.21 231.81C426.047 236.44 422.896 240.541 418.979 243.823C415.061 247.106 410.472 249.491 405.534 250.81C400.597 252.129 395.43 252.351 390.397 251.46C385.365 250.569 380.588 248.586 376.404 245.652C372.219 242.717 368.728 238.901 366.176 234.473C363.624 230.045 362.072 225.112 361.631 220.02C361.189 214.928 361.868 209.801 363.62 205H429.38C430.786 208.851 431.503 212.92 431.5 217.02Z" fill="#F99E32"/>
<path d="M276.684 211.474C282.127 206.032 286.155 199.341 288.418 191.985C290.68 184.628 291.108 176.83 289.665 169.27C288.221 161.71 284.949 154.618 280.134 148.613C275.32 142.608 269.109 137.873 262.044 134.82C267.181 125.835 269.22 115.41 267.847 105.151C266.474 94.8932 261.766 85.371 254.447 78.0526C247.129 70.7342 237.607 66.0258 227.349 64.6531C217.09 63.2803 206.665 65.3194 197.68 70.456C194.627 63.3909 189.892 57.1801 183.887 52.3657C177.882 47.5512 170.79 44.2793 163.23 42.8355C155.67 41.3916 147.872 41.8197 140.515 44.0823C133.159 46.3449 126.468 50.3733 121.026 55.816C112.18 46.9697 100.182 41.9999 87.671 41.9999C75.1604 41.9999 63.1623 46.9697 54.316 55.816C45.4697 64.6623 40.4999 76.6604 40.4999 89.171C40.4999 101.682 45.4697 113.68 54.316 122.526C48.8733 127.968 44.8448 134.659 42.5823 142.015C40.3197 149.372 39.8916 157.17 41.3355 164.73C42.7793 172.29 46.0512 179.382 50.8657 185.387C55.6801 191.392 61.8908 196.127 68.956 199.18C63.8193 208.165 61.7803 218.59 63.1531 228.849C64.5258 239.107 69.2342 248.629 76.5526 255.947C83.871 263.266 93.3931 267.974 103.651 269.347C113.91 270.72 124.335 268.681 133.32 263.544C136.373 270.609 141.108 276.82 147.113 281.634C153.118 286.449 160.21 289.721 167.77 291.165C175.33 292.608 183.128 292.18 190.485 289.918C197.841 287.655 204.532 283.627 209.974 278.184C218.82 287.03 230.818 292 243.329 292C255.84 292 267.838 287.03 276.684 278.184C285.53 269.338 290.5 257.34 290.5 244.829C290.5 232.318 285.53 220.32 276.684 211.474Z" fill="#8BC932"/>
<path d="M216.754 262.8C216.58 262.8 216.405 262.794 216.229 262.781C215.246 262.713 214.287 262.452 213.405 262.013C212.523 261.575 211.736 260.966 211.09 260.224C210.443 259.481 209.949 258.618 209.635 257.684C209.322 256.75 209.196 255.764 209.264 254.781C211.208 226.629 203.435 196.597 187.377 170.217C167.045 136.817 134.536 109.554 90.753 89.189C89.8503 88.7798 89.0376 88.1958 88.362 87.4707C87.6863 86.7456 87.1611 85.8937 86.8167 84.9644C86.4722 84.035 86.3154 83.0466 86.3552 82.0563C86.3951 81.066 86.6308 80.0934 87.0489 79.1948C87.4669 78.2961 88.0588 77.4892 88.7906 76.8207C89.5223 76.1522 90.3793 75.6354 91.312 75.3001C92.2446 74.9648 93.2345 74.8177 94.2244 74.8673C95.2143 74.9169 96.1845 75.1622 97.079 75.589C143.598 97.226 178.289 126.439 200.19 162.418C217.848 191.425 226.384 224.593 224.229 255.818C224.098 257.712 223.254 259.485 221.866 260.781C220.479 262.077 218.652 262.798 216.754 262.8Z" fill="#80B524"/>
<path d="M276.68 278.18C272.301 282.562 267.101 286.038 261.378 288.41C255.655 290.782 249.52 292.002 243.325 292.002C237.13 292.002 230.995 290.782 225.272 288.41C219.549 286.038 214.349 282.562 209.97 278.18C204.529 283.623 197.838 287.653 190.482 289.916C183.126 292.179 175.327 292.607 167.767 291.163C160.207 289.719 153.116 286.447 147.111 281.632C141.107 276.817 136.372 270.606 133.32 263.54C124.816 268.405 115.008 270.501 105.258 269.537C95.5087 268.573 86.3013 264.596 78.9154 258.159C71.5294 251.722 66.3316 243.144 64.044 233.618C61.7563 224.091 62.4924 214.089 66.15 205H282.1C280.488 207.313 278.674 209.478 276.68 211.47C281.062 215.849 284.538 221.049 286.91 226.772C289.282 232.495 290.502 238.63 290.502 244.825C290.502 251.02 289.282 257.155 286.91 262.878C284.538 268.601 281.062 273.801 276.68 278.18Z" fill="#80B524"/>
<path d="M178 144.147C160.2 144.147 142.799 149.425 127.999 159.315C113.198 169.204 101.663 183.26 94.8509 199.705C88.039 216.151 86.2567 234.247 89.7293 251.705C93.202 269.163 101.774 285.2 114.36 297.787C126.947 310.373 142.984 318.945 160.442 322.418C177.9 325.89 195.996 324.108 212.442 317.296C228.887 310.484 242.943 298.949 252.832 284.148C262.722 269.348 268 251.947 268 234.147C268.001 222.328 265.673 210.624 261.151 199.705C256.628 188.785 249.999 178.863 241.641 170.506C233.284 162.148 223.362 155.519 212.442 150.996C201.523 146.474 189.819 144.146 178 144.147ZM178 294.147C166.133 294.147 154.533 290.628 144.666 284.035C134.799 277.442 127.108 268.072 122.567 257.108C118.026 246.144 116.838 234.08 119.153 222.442C121.468 210.803 127.182 200.112 135.574 191.721C143.965 183.329 154.656 177.615 166.295 175.3C177.933 172.985 189.997 174.173 200.961 178.714C211.925 183.255 221.295 190.946 227.888 200.813C234.481 210.68 238 222.28 238 234.147C237.983 250.055 231.656 265.306 220.407 276.554C209.159 287.803 193.908 294.13 178 294.147Z" fill="#F3EADE"/>
<path d="M263.17 205H230.43C235.512 214.133 238.12 224.435 237.996 234.886C237.872 245.337 235.02 255.574 229.722 264.584C224.425 273.594 216.866 281.063 207.794 286.253C198.722 291.443 188.452 294.174 178 294.174C167.548 294.174 157.278 291.443 148.206 286.253C139.134 281.063 131.575 273.594 126.278 264.584C120.98 255.574 118.128 245.337 118.004 234.886C117.88 224.435 120.488 214.133 125.57 205H92.83C88.203 218.548 86.8749 233.005 88.9559 247.169C91.0369 261.334 96.467 274.798 104.795 286.443C113.124 298.087 124.11 307.577 136.842 314.125C149.573 320.672 163.683 324.087 178 324.087C192.317 324.087 206.427 320.672 219.158 314.125C231.89 307.577 242.876 298.087 251.205 286.443C259.533 274.798 264.963 261.334 267.044 247.169C269.125 233.005 267.797 218.548 263.17 205Z" fill="#F1DDC8"/>
<path d="M278 289.516C327.706 289.516 368 249.222 368 199.516C368 149.81 327.706 109.516 278 109.516C228.294 109.516 188 149.81 188 199.516C188 249.222 228.294 289.516 278 289.516Z" fill="#F15D40"/>
<path d="M278 259.516C311.137 259.516 338 232.653 338 199.516C338 166.379 311.137 139.516 278 139.516C244.863 139.516 218 166.379 218 199.516C218 232.653 244.863 259.516 278 259.516Z" fill="#DA4F3C"/>
<path d="M278 172.016C282.142 172.016 285.5 168.658 285.5 164.516C285.5 160.374 282.142 157.016 278 157.016C273.858 157.016 270.5 160.374 270.5 164.516C270.5 168.658 273.858 172.016 278 172.016Z" fill="#FFCB80"/>
<path d="M308 197.016C312.142 197.016 315.5 193.658 315.5 189.516C315.5 185.374 312.142 182.016 308 182.016C303.858 182.016 300.5 185.374 300.5 189.516C300.5 193.658 303.858 197.016 308 197.016Z" fill="#FFCB80"/>
<path d="M248 197.016C252.142 197.016 255.5 193.658 255.5 189.516C255.5 185.374 252.142 182.016 248 182.016C243.858 182.016 240.5 185.374 240.5 189.516C240.5 193.658 243.858 197.016 248 197.016Z" fill="#FFCB80"/>
<path d="M367.83 205C366.422 227.869 356.346 249.34 339.654 265.036C322.962 280.732 300.912 289.471 278 289.471C255.088 289.471 233.038 280.732 216.346 265.036C199.654 249.34 189.578 227.869 188.17 205H367.83Z" fill="#DA4F3C"/>
<path d="M337.75 205C336.385 219.903 329.5 233.759 318.446 243.847C307.391 253.936 292.966 259.528 278 259.528C263.034 259.528 248.609 253.936 237.554 243.847C226.5 233.759 219.615 219.903 218.25 205H337.75Z" fill="#CC4032"/>
<path d="M381 440V455C380.999 458.978 379.418 462.792 376.605 465.605C373.792 468.418 369.978 469.999 366 470H146C142.022 469.999 138.208 468.418 135.395 465.605C132.582 462.792 131.001 458.978 131 455V440H381Z" fill="#92BCCD"/>
<path d="M25.5 340V230C25.5 227.348 26.5536 224.804 28.4289 222.929C30.3043 221.054 32.8478 220 35.5 220H476.5C479.152 220 481.696 221.054 483.571 222.929C485.446 224.804 486.5 227.348 486.5 230V340C486.5 353.132 483.913 366.136 478.888 378.268C473.862 390.401 466.497 401.425 457.211 410.711C447.925 419.997 436.901 427.362 424.768 432.388C412.636 437.413 399.632 440 386.5 440H125.5C98.9784 440 73.543 429.464 54.7893 410.711C36.0357 391.957 25.5 366.522 25.5 340Z" fill="#E8F2F8"/>
<path d="M165.5 440H125.5C98.9784 440 73.543 429.464 54.7893 410.711C36.0357 391.957 25.5 366.522 25.5 340V230C25.5 227.348 26.5536 224.804 28.4289 222.929C30.3043 221.054 32.8478 220 35.5 220H65.5V340C65.5 353.132 68.0866 366.136 73.112 378.268C78.1375 390.401 85.5035 401.425 94.7893 410.711C113.543 429.464 138.978 440 165.5 440Z" fill="#ACD1E4"/>
<path d="M476.5 212.5H465.966C478.728 187.169 482.2 154.783 475.966 117.917C475.706 116.381 474.975 114.965 473.874 113.864C472.772 112.762 471.356 112.031 469.82 111.772C446.051 107.753 424.128 107.83 404.769 111.786C406.188 107.59 407.278 103.29 408.029 98.925C408.614 95.5601 408.426 92.1063 407.48 88.8246C406.534 85.5429 404.854 82.5194 402.567 79.9825C400.28 77.4457 397.447 75.462 394.28 74.1815C391.114 72.9009 387.698 72.3571 384.291 72.591L289.974 79.191C287.99 79.3297 286.142 80.251 284.837 81.7522C283.532 83.2535 282.876 85.2116 283.015 87.196C283.154 89.1803 284.075 91.0283 285.576 92.3334C287.077 93.6385 289.036 94.2937 291.02 94.155L385.338 87.555C386.467 87.4671 387.601 87.6412 388.651 88.0637C389.702 88.4863 390.64 89.1459 391.394 89.991C392.17 90.8461 392.74 91.8674 393.061 92.9766C393.381 94.0859 393.444 95.2538 393.244 96.391C392.006 103.592 389.654 110.556 386.272 117.033C373.948 121.519 362.608 128.349 352.88 137.146C343.744 126.151 332.299 117.303 319.357 111.231C306.415 105.16 292.295 102.013 278 102.016C276.983 102.016 275.971 102.036 274.962 102.068C273.574 94.0633 270.419 86.4686 265.727 79.8361C261.035 73.2036 254.924 67.7 247.839 63.7254C240.753 59.7509 232.871 57.4052 224.765 56.859C216.659 56.3129 208.534 57.5799 200.979 60.568C196.967 54.036 191.627 48.4203 185.305 44.0851C178.983 39.7499 171.82 36.7922 164.281 35.4036C156.742 34.0151 148.996 34.2268 141.544 36.0251C134.092 37.8234 127.102 41.168 121.026 45.842C110.502 37.7455 97.3916 33.7549 84.1414 34.6149C70.8912 35.4748 58.4066 41.1266 49.0174 50.5155C39.6283 59.9044 33.9761 72.3889 33.1158 85.6391C32.2555 98.8893 36.2458 112 44.342 122.524C40.8655 127.021 38.1207 132.04 36.209 137.393C35.8658 138.323 35.7102 139.311 35.7511 140.301C35.7921 141.291 36.0288 142.263 36.4476 143.161C36.8664 144.059 37.459 144.865 38.1911 145.533C38.9232 146.2 39.7804 146.716 40.7131 147.051C41.6458 147.385 42.6355 147.531 43.6251 147.481C44.6146 147.431 45.5845 147.185 46.4785 146.758C47.3725 146.331 48.173 145.731 48.8337 144.992C49.4944 144.254 50.0023 143.392 50.328 142.456C52.2986 136.95 55.4727 131.953 59.619 127.829C60.3155 127.133 60.868 126.306 61.2449 125.396C61.6219 124.486 61.8159 123.51 61.8159 122.525C61.8159 121.541 61.6219 120.565 61.2449 119.655C60.868 118.745 60.3155 117.918 59.619 117.222C52.3118 109.755 48.2449 99.7078 48.3013 89.2607C48.3576 78.8135 52.5327 68.8104 59.9201 61.4231C67.3074 54.0357 77.3105 49.8606 87.7577 49.8043C98.2048 49.7479 108.252 53.8148 115.719 61.122C116.415 61.8185 117.242 62.371 118.152 62.7479C119.062 63.1249 120.038 63.3189 121.022 63.3189C122.007 63.3189 122.983 63.1249 123.893 62.7479C124.803 62.371 125.63 61.8185 126.326 61.122C130.902 56.5445 136.529 53.1564 142.716 51.2533C148.902 49.3503 155.46 48.9901 161.818 50.2041C168.176 51.4182 174.14 54.1697 179.19 58.2185C184.24 62.2673 188.223 67.4903 190.79 73.432C191.209 74.4013 191.827 75.2712 192.605 75.985C193.383 76.6988 194.303 77.2403 195.304 77.5741C196.306 77.9078 197.367 78.0264 198.417 77.922C199.468 77.8175 200.485 77.4924 201.401 76.968C206.863 73.8424 212.989 72.0615 219.275 71.7722C225.561 71.483 231.826 72.6938 237.551 75.3046C243.277 77.9154 248.299 81.8512 252.202 86.7868C256.106 91.7224 258.779 97.5161 260 103.689C236.726 108.088 215.845 120.8 201.25 139.455C194.714 137.854 188.03 136.934 181.305 136.708C160.041 112.269 131.733 91.708 97.083 75.591C96.1885 75.1642 95.2183 74.9189 94.2284 74.8693C93.2385 74.8197 92.2486 74.9668 91.316 75.3021C90.3833 75.6374 89.5263 76.1542 88.7946 76.8227C88.0628 77.4912 87.4709 78.2981 87.0528 79.1968C86.6348 80.0954 86.3991 81.068 86.3592 82.0583C86.3194 83.0486 86.4762 84.037 86.8207 84.9664C87.1651 85.8957 87.6903 86.7476 88.366 87.4727C89.0416 88.1978 89.8543 88.7818 90.757 89.191C119.308 102.471 143.215 118.855 162.05 137.982C142.951 141.137 125.226 149.91 111.135 163.182C97.044 176.455 87.2268 193.624 82.936 212.5H71.565C72.4395 209.145 73.7507 205.92 75.465 202.906C75.9886 201.99 76.313 200.974 76.4171 199.924C76.5211 198.874 76.4025 197.814 76.0688 196.813C75.7352 195.812 75.1941 194.892 74.4809 194.115C73.7677 193.337 72.8985 192.719 71.93 192.3C65.9622 189.72 60.7196 185.714 56.6634 180.633C52.6072 175.552 49.8616 169.552 48.668 163.161C48.281 161.229 47.1496 159.528 45.5182 158.423C43.8869 157.319 41.8866 156.901 39.9495 157.26C38.0124 157.618 36.2942 158.724 35.166 160.339C34.0378 161.954 33.5902 163.948 33.92 165.89C35.3237 173.408 38.2875 180.549 42.6201 186.851C46.9528 193.154 52.5583 198.479 59.075 202.482C57.799 205.723 56.8323 209.077 56.188 212.5H35.5C30.8603 212.505 26.4122 214.351 23.1315 217.631C19.8507 220.912 18.0053 225.36 18 230V340C18.033 368.154 29.097 395.174 48.8193 415.265C68.5416 435.357 95.3517 446.92 123.5 447.475V455C123.507 460.965 125.88 466.684 130.098 470.902C134.316 475.12 140.035 477.493 146 477.5H366C371.965 477.493 377.684 475.12 381.902 470.902C386.12 466.684 388.493 460.965 388.5 455V447.475C416.648 446.92 443.458 435.357 463.181 415.265C482.903 395.174 493.967 368.154 494 340V328.569C494 327.584 493.806 326.609 493.429 325.699C493.052 324.789 492.5 323.962 491.803 323.266C491.107 322.569 490.28 322.017 489.37 321.64C488.46 321.263 487.485 321.069 486.5 321.069C485.515 321.069 484.54 321.263 483.63 321.64C482.72 322.017 481.893 322.569 481.197 323.266C480.5 323.962 479.948 324.789 479.571 325.699C479.194 326.609 479 327.584 479 328.569V340C478.974 364.524 469.22 388.037 451.878 405.378C434.537 422.72 411.024 432.474 386.5 432.5H210.067C208.078 432.5 206.17 433.29 204.764 434.697C203.357 436.103 202.567 438.011 202.567 440C202.567 441.989 203.357 443.897 204.764 445.303C206.17 446.71 208.078 447.5 210.067 447.5H373.5V455C373.498 456.988 372.707 458.895 371.301 460.301C369.895 461.707 367.988 462.498 366 462.5H146C144.012 462.498 142.105 461.707 140.699 460.301C139.293 458.895 138.502 456.988 138.5 455V447.5H181.831C183.82 447.5 185.728 446.71 187.134 445.303C188.541 443.897 189.331 441.989 189.331 440C189.331 438.011 188.541 436.103 187.134 434.697C185.728 433.29 183.82 432.5 181.831 432.5H125.5C100.976 432.474 77.4632 422.72 60.1219 405.378C42.7805 388.037 33.0265 364.524 33 340V277.5H378.634C380.623 277.5 382.531 276.71 383.937 275.303C385.344 273.897 386.134 271.989 386.134 270C386.134 268.011 385.344 266.103 383.937 264.697C382.531 263.29 380.623 262.5 378.634 262.5H33V230C33 229.337 33.2634 228.701 33.7322 228.232C34.2011 227.763 34.837 227.5 35.5 227.5H476.5C477.163 227.5 477.799 227.763 478.268 228.232C478.737 228.701 479 229.337 479 230V262.5H404.557C402.568 262.5 400.66 263.29 399.254 264.697C397.847 266.103 397.057 268.011 397.057 270C397.057 271.989 397.847 273.897 399.254 275.303C400.66 276.71 402.568 277.5 404.557 277.5H479V285C479 286.989 479.79 288.897 481.197 290.303C482.603 291.71 484.511 292.5 486.5 292.5C488.489 292.5 490.397 291.71 491.803 290.303C493.21 288.897 494 286.989 494 285V230C493.995 225.36 492.149 220.912 488.869 217.631C485.588 214.351 481.14 212.505 476.5 212.5ZM462.01 125.732C467.025 160.603 462.48 190.432 448.792 212.5H438.738C438.026 205.895 435.778 199.549 432.174 193.969C428.569 188.389 423.709 183.73 417.981 180.366L447.7 150.649C448.396 149.953 448.949 149.126 449.326 148.216C449.703 147.306 449.897 146.33 449.897 145.346C449.897 144.361 449.703 143.385 449.326 142.475C448.949 141.565 448.396 140.738 447.7 140.042C447.004 139.346 446.177 138.793 445.267 138.416C444.357 138.039 443.381 137.845 442.397 137.845C441.412 137.845 440.436 138.039 439.526 138.416C438.616 138.793 437.789 139.346 437.093 140.042L402.223 174.912C392.3 173.547 382.213 175.736 373.749 181.092C371.603 169.925 367.507 159.223 361.649 149.477C384.135 127.976 419.37 119.616 462.01 125.732ZM375.5 199.266C378.888 195.259 383.353 192.306 388.365 190.754C393.378 189.202 398.73 189.117 403.79 190.508C408.849 191.9 413.405 194.71 416.919 198.606C420.434 202.503 422.76 207.324 423.623 212.5H374.635C375.209 208.196 375.498 203.858 375.5 199.516V199.266ZM278 117.016C289.931 117.021 301.719 119.613 312.551 124.613C323.384 129.612 333.004 136.901 340.749 145.977C348.493 155.053 354.178 165.699 357.411 177.184C360.645 188.668 361.35 200.717 359.478 212.5H344.232C346.003 203.502 345.922 194.237 343.993 185.271C342.064 176.305 338.329 167.827 333.015 160.352C327.701 152.878 320.919 146.565 313.084 141.799C305.249 137.032 296.525 133.913 287.445 132.63C278.364 131.347 269.117 131.928 260.268 134.337C251.42 136.747 243.155 140.934 235.978 146.644C228.801 152.353 222.863 159.465 218.527 167.546C214.19 175.627 211.545 184.506 210.754 193.643C210.657 194.63 210.757 195.627 211.048 196.576C211.339 197.524 211.815 198.406 212.449 199.169C213.083 199.932 213.862 200.562 214.741 201.022C215.62 201.482 216.582 201.763 217.571 201.848C218.559 201.934 219.555 201.823 220.5 201.521C221.445 201.219 222.321 200.733 223.077 200.09C223.832 199.447 224.453 198.661 224.903 197.777C225.353 196.892 225.623 195.927 225.697 194.938C226.336 187.717 228.463 180.706 231.945 174.347C235.427 167.988 240.189 162.42 245.929 157.992C251.67 153.564 258.265 150.374 265.299 148.621C272.334 146.868 279.655 146.591 286.802 147.808C293.949 149.024 300.767 151.708 306.825 155.689C312.884 159.67 318.052 164.863 322.004 170.941C325.957 177.018 328.608 183.849 329.79 191.001C330.972 198.154 330.66 205.474 328.874 212.5H196.522C194.65 200.717 195.355 188.668 198.589 177.184C201.822 165.699 207.507 155.053 215.251 145.977C222.996 136.901 232.616 129.612 243.449 124.613C254.281 119.613 266.069 117.021 278 117.016ZM181.365 212.5H130.165C134.325 203.3 141.051 195.496 149.535 190.023C158.02 184.551 167.903 181.642 178 181.647C179.375 181.647 180.745 181.72 182.112 181.827C180.252 191.948 180 202.3 181.365 212.5ZM124.383 171.441C133.647 163.524 144.549 157.757 156.306 154.552C168.063 151.348 180.383 150.786 192.383 152.907C189.89 157.473 187.767 162.232 186.036 167.138C170.653 165.27 155.096 168.762 141.987 177.024C128.877 185.287 119.017 197.816 114.066 212.5H98.387C102.743 196.518 111.8 182.214 124.383 171.441Z" fill="black"/>
<path d="M486.5 314.26C490.642 314.26 494 310.902 494 306.76C494 302.618 490.642 299.26 486.5 299.26C482.358 299.26 479 302.618 479 306.76C479 310.902 482.358 314.26 486.5 314.26Z" fill="black"/>
</svg>
