<svg width="512" height="512" viewBox="0 0 512 512" fill="none" xmlns="http://www.w3.org/2000/svg">
<path d="M200.53 142.166C172.247 142.166 145.356 148.097 121.086 158.745L121.085 158.746C120.297 159.092 119.515 159.449 118.733 159.804L108.176 165.459C45.781 198.879 7.021 262.779 7.021 332.223V349.273C7.021 378.86 31.658 402.93 61.942 402.93H375.979C386.518 402.93 395.092 394.356 395.092 383.817V332.223C395.09 227.425 307.812 142.166 200.53 142.166Z" fill="#F7931E"/>
<path d="M47.097 295.154C47.097 311.358 52.276 326.676 62.076 339.452L62.39 339.861L62.72 340.193L62.947 340.563L63.278 340.972C69.6353 348.838 77.5784 355.277 86.59 359.868L98.266 365.837L115.28 369.65L156.711 236.166L146.96 226.415L134.071 223.85C129.375 222.914 124.598 222.44 119.809 222.437C79.716 222.441 47.097 255.06 47.097 295.154Z" fill="#E0770E"/>
<path d="M52.153 361.809C38.603 361.809 27.581 350.786 27.581 337.237C27.581 328.963 31.68 321.342 38.569 316.766C37.2689 313.727 36.6013 310.455 36.607 307.149C36.607 294.173 46.762 283.407 59.725 282.641L66.715 282.228L68.07 289.098C69.7715 297.767 73.0725 306.043 77.804 313.503L81.547 319.411L76.205 323.925C70.162 329.033 66.696 336.444 66.696 344.259C66.696 346.187 66.901 348.102 67.305 349.95L68.539 355.597L63.575 358.557C62.994 358.903 62.37 359.32 61.612 359.87L59.393 361.478L56.69 361.395C55.2 361.669 53.676 361.809 52.153 361.809Z" fill="#7AAB02"/>
<path d="M68.069 289.097L66.714 282.227L59.724 282.64C55.3965 282.892 51.2136 284.29 47.604 286.69C47.2708 289.499 47.1012 292.325 47.096 295.153C47.096 311.357 52.275 326.675 62.075 339.451L62.389 339.86L62.719 340.192L62.946 340.562L63.277 340.971C64.3752 342.315 65.5209 343.619 66.712 344.881C66.707 344.672 66.695 344.465 66.695 344.256C66.695 336.441 70.161 329.029 76.204 323.922L81.546 319.408L77.803 313.5C73.071 306.041 69.77 297.765 68.069 289.097Z" fill="#5F8E03"/>
<path d="M57.782 400.933C53.077 396.023 50.044 389.647 49.685 382.855C49.3604 376.968 50.9339 371.132 54.1739 366.205C57.414 361.279 62.1496 357.523 67.684 355.489C67.7282 355.473 67.7687 355.449 67.803 355.417C67.8373 355.385 67.8646 355.346 67.8833 355.303C67.902 355.26 67.9116 355.213 67.9115 355.166C67.9115 355.119 67.9018 355.073 67.883 355.03C66.4314 351.624 65.6866 347.959 65.694 344.257C65.694 336.449 69.045 328.96 74.888 323.71L80.464 318.699C80.5331 318.637 80.6236 318.605 80.7163 318.609C80.8089 318.613 80.8963 318.653 80.96 318.72L86.095 324.181C93.325 331.87 101.975 337.75 111.803 341.659L116.638 343.582C116.704 343.608 116.761 343.654 116.801 343.713C116.84 343.772 116.862 343.841 116.862 343.912V349.272C116.862 363.396 111.273 376.735 101.123 386.833C91.05 396.854 77.613 402.56 63.284 402.899L59.904 402.979C59.8547 402.98 59.8057 402.971 59.7601 402.952C59.7145 402.933 59.6733 402.905 59.639 402.87L57.782 400.933Z" fill="#5F8E03"/>
<path d="M327.681 143.499L322.095 131.755C316.409 119.803 304.146 112.079 290.853 112.079C282.589 112.078 274.598 115.038 268.329 120.423C265.086 116.85 261.132 113.994 256.72 112.039C252.309 110.084 247.537 109.073 242.712 109.07C237.12 109.068 231.611 110.422 226.658 113.016C221.704 115.61 217.453 119.367 214.27 123.964C208.919 120.776 202.805 119.096 196.577 119.1C181.603 119.1 168.477 128.575 163.755 142.733C160.419 141.692 156.945 141.163 153.451 141.164C134.372 141.164 118.85 156.686 118.85 175.765C118.85 185.456 122.964 194.771 130.136 201.32L132.556 203.529L168.756 243.939L346.175 163.927L327.681 143.499Z" fill="#7AAB02"/>
<path d="M187.385 203.529L184.965 201.32C177.793 194.771 173.679 185.457 173.679 175.765C173.679 156.686 189.201 141.164 208.28 141.164C211.78 141.164 215.244 141.692 218.584 142.733C223.306 128.575 236.432 119.1 251.406 119.1C257.652 119.1 263.758 120.78 269.099 123.964C271.981 119.813 275.737 116.342 280.102 113.795C275.779 115.208 271.778 117.461 268.327 120.423C265.084 116.85 261.13 113.994 256.718 112.039C252.307 110.084 247.535 109.073 242.71 109.07C237.118 109.068 231.609 110.422 226.656 113.016C221.702 115.61 217.451 119.367 214.268 123.964C208.917 120.776 202.803 119.096 196.575 119.1C181.601 119.1 168.475 128.575 163.753 142.733C160.417 141.692 156.943 141.163 153.449 141.164C134.37 141.164 118.848 156.686 118.848 175.765C118.848 185.456 122.962 194.771 130.134 201.32L132.554 203.529L168.754 243.939L207.807 226.326L187.385 203.529Z" fill="#5F8E03"/>
<path d="M165.555 206.319L152.666 203.754C147.97 202.818 143.193 202.344 138.404 202.341C98.31 202.341 65.691 234.96 65.691 275.054C65.691 291.258 70.87 306.576 80.67 319.352L80.984 319.761L81.314 320.093L81.541 320.463L81.872 320.872C88.2293 328.738 96.1724 335.177 105.184 339.768L116.86 345.737L133.874 349.55L175.305 216.066L165.555 206.319Z" fill="#E23B3B"/>
<path d="M116.861 349.273V343.913C116.861 343.842 116.839 343.773 116.8 343.714C116.76 343.655 116.703 343.609 116.637 343.583L111.802 341.66C101.973 337.752 93.324 331.87 86.094 324.182L80.959 318.721C80.8952 318.654 80.8078 318.614 80.7152 318.61C80.6227 318.606 80.5322 318.638 80.463 318.7L74.887 323.711C69.154 328.861 65.829 336.168 65.705 343.815C71.6195 350.406 78.6998 355.848 86.59 359.869L98.266 365.838L112.966 369.133C115.542 362.829 116.865 356.083 116.861 349.273Z" fill="#537206"/>
<path d="M140.523 328.135L170.449 231.72C163.359 228.172 155.538 226.328 147.609 226.336C119.359 226.336 96.459 249.236 96.459 277.486C96.459 303.328 115.629 324.683 140.523 328.135Z" fill="#BF1616"/>
<path d="M81.061 402.93L97.495 388.82C109.165 378.8 115.858 364.386 115.858 349.273V332.223C115.858 227.425 203.138 142.166 310.419 142.166C417.7 142.166 504.979 227.425 504.979 332.223V383.817C504.979 394.356 496.405 402.93 485.866 402.93H81.061Z" fill="#FCC062"/>
<path d="M168.25 349.273V332.223C168.25 236.102 241.678 156.432 336.615 143.895C327.93 142.745 319.179 142.168 310.419 142.166C203.138 142.166 115.858 227.425 115.858 332.223V349.273C115.858 364.385 109.165 378.8 97.495 388.82L81.061 402.93H133.452L149.886 388.82C161.557 378.799 168.25 364.385 168.25 349.273Z" fill="#F9B52B"/>
<path d="M221.649 253.492C228.573 253.492 234.186 247.879 234.186 240.955C234.186 234.031 228.573 228.418 221.649 228.418C214.725 228.418 209.112 234.031 209.112 240.955C209.112 247.879 214.725 253.492 221.649 253.492Z" fill="#F7931E"/>
<path d="M322.946 253.492C329.87 253.492 335.483 247.879 335.483 240.955C335.483 234.031 329.87 228.418 322.946 228.418C316.022 228.418 310.409 234.031 310.409 240.955C310.409 247.879 316.022 253.492 322.946 253.492Z" fill="#F7931E"/>
<path d="M371.087 304.642C378.011 304.642 383.624 299.029 383.624 292.105C383.624 285.181 378.011 279.568 371.087 279.568C364.163 279.568 358.55 285.181 358.55 292.105C358.55 299.029 364.163 304.642 371.087 304.642Z" fill="#F7931E"/>
<path d="M274.805 304.642C281.729 304.642 287.342 299.029 287.342 292.105C287.342 285.181 281.729 279.568 274.805 279.568C267.881 279.568 262.268 285.181 262.268 292.105C262.268 299.029 267.881 304.642 274.805 304.642Z" fill="#F7931E"/>
<path d="M407.193 253.492C414.117 253.492 419.73 247.879 419.73 240.955C419.73 234.031 414.117 228.418 407.193 228.418C400.269 228.418 394.656 234.031 394.656 240.955C394.656 247.879 400.269 253.492 407.193 253.492Z" fill="#F7931E"/>
<path d="M221.649 350.777C228.573 350.777 234.186 345.164 234.186 338.24C234.186 331.316 228.573 325.703 221.649 325.703C214.725 325.703 209.112 331.316 209.112 338.24C209.112 345.164 214.725 350.777 221.649 350.777Z" fill="#F7931E"/>
<path d="M322.946 350.777C329.87 350.777 335.483 345.164 335.483 338.24C335.483 331.316 329.87 325.703 322.946 325.703C316.022 325.703 310.409 331.316 310.409 338.24C310.409 345.164 316.022 350.777 322.946 350.777Z" fill="#F7931E"/>
<path d="M407.193 350.777C414.117 350.777 419.73 345.164 419.73 338.24C419.73 331.316 414.117 325.703 407.193 325.703C400.269 325.703 394.656 331.316 394.656 338.24C394.656 345.164 400.269 350.777 407.193 350.777Z" fill="#F7931E"/>
<path d="M450.926 201.976C448.115 204.787 447.956 209.32 450.615 212.275C479.449 244.331 496.956 286.318 496.956 332.222V383.816C496.956 389.94 491.991 394.905 485.867 394.905H102.723C115.686 383.774 123.882 367.445 123.882 349.271V332.221C123.882 231.847 207.563 150.188 310.42 150.188C350.925 150.188 388.449 162.86 419.065 184.344C422.064 186.448 426.131 186.12 428.721 183.53C432.021 180.23 431.557 174.742 427.738 172.06C399.958 152.553 366.923 139.767 331.139 136.179C326.474 118.06 310.137 105.056 290.853 105.056C283.092 105.054 275.485 107.226 268.894 111.324C261.486 105.326 252.244 102.051 242.712 102.047C237.024 102.044 231.396 103.208 226.175 105.467C220.955 107.727 216.254 111.033 212.363 115.182C207.353 113.129 201.991 112.074 196.577 112.076C180.74 112.076 166.621 120.889 159.582 134.594C157.552 134.292 155.503 134.141 153.451 134.141C139.114 134.141 126.447 141.427 118.958 152.492C118.623 152.586 118.295 152.703 117.976 152.843C83.296 168.316 53.885 193.008 32.92 224.248C11.383 256.341 0 293.678 0 332.223V349.273C0 382.039 26.653 408.804 59.834 409.899C59.946 409.904 60.058 409.927 60.169 409.927C60.251 409.927 60.333 409.916 60.416 409.914C60.924 409.926 61.43 409.952 61.94 409.952H485.866C500.299 409.952 512 398.252 512 383.818V332.223C512 282.495 493.063 237.012 461.87 202.3C458.977 199.081 453.987 198.915 450.926 201.976ZM153.45 149.187C156.268 149.187 159.055 149.632 161.734 150.51C162.678 150.82 163.674 150.939 164.665 150.862C165.655 150.784 166.62 150.511 167.505 150.058C168.389 149.606 169.175 148.982 169.817 148.224C170.459 147.466 170.944 146.588 171.245 145.641C174.765 134.565 184.944 127.123 196.576 127.123C201.496 127.123 206.302 128.479 210.473 131.045C212.126 132.062 214.108 132.401 216.005 131.99C217.902 131.579 219.567 130.452 220.652 128.842C222.919 125.469 225.931 122.66 229.454 120.633C232.977 118.606 236.918 117.415 240.974 117.15C245.03 116.886 249.093 117.555 252.849 119.107C256.606 120.659 259.957 123.053 262.643 126.103C263.297 126.844 264.091 127.449 264.979 127.883C265.866 128.317 266.831 128.572 267.817 128.633C268.804 128.694 269.792 128.561 270.727 128.24C271.662 127.919 272.524 127.417 273.265 126.763C278.118 122.47 284.373 120.101 290.852 120.102C301.399 120.102 310.562 126.191 314.848 135.201C313.372 135.167 311.895 135.149 310.418 135.146C251.803 135.146 198.959 159.739 162.092 198.916C154.423 196.529 146.437 195.318 138.406 195.322C137.446 195.322 136.496 195.361 135.546 195.394C132.816 192.904 130.634 189.873 129.141 186.493C127.648 183.113 126.875 179.459 126.873 175.764C126.872 161.109 138.795 149.187 153.45 149.187ZM138.405 210.366C142.704 210.366 146.945 210.798 151.101 211.625C124.624 244.981 108.837 286.83 108.837 332.223V332.626C100.829 328.534 93.7671 322.809 88.106 315.822C87.8027 315.332 87.4437 314.878 87.036 314.471C78.588 303.456 73.715 289.727 73.715 275.056C73.716 239.386 102.736 210.366 138.405 210.366ZM44.136 391.48C27.083 384.644 15.044 368.304 15.044 349.272V332.222C15.044 265.6 52.671 204.29 111.965 172.531C111.878 173.606 111.832 174.684 111.828 175.763C111.828 183.681 114.098 191.341 118.23 197.913C84.003 206.871 58.673 238.058 58.673 275.054C58.673 275.258 58.683 275.46 58.684 275.663C42.427 276.942 29.588 290.569 29.588 307.148C29.588 309.585 29.862 311.982 30.407 314.318C24.16 320.225 20.561 328.442 20.561 337.236C20.561 352.293 31.152 364.916 45.274 368.065C42.1871 375.501 41.7847 383.78 44.136 391.48ZM55.264 353.495C54.2384 353.689 53.1968 353.786 52.153 353.786C43.028 353.786 35.605 346.362 35.605 337.238C35.605 331.57 38.464 326.356 43.253 323.291C44.7704 322.32 45.889 320.837 46.4052 319.111C46.9214 317.385 46.8011 315.531 46.066 313.886C45.1163 311.767 44.6272 309.471 44.631 307.149C44.631 298.355 51.531 291.162 60.198 290.651C62.0968 300.292 65.7683 309.496 71.026 317.797C63.343 324.29 58.673 333.958 58.673 344.259C58.673 346.775 58.94 349.25 59.467 351.664C58.5879 352.195 57.733 352.765 56.905 353.372C56.3551 353.353 55.8048 353.394 55.264 353.495ZM63.093 394.878C59.6058 391.245 57.6617 386.402 57.669 381.366C57.669 372.917 63.057 365.456 71.076 362.802C72.0828 362.468 73.0076 361.924 73.7897 361.208C74.5718 360.491 75.1937 359.617 75.6144 358.643C76.0351 357.669 76.2453 356.618 76.2311 355.557C76.2169 354.496 75.9787 353.45 75.532 352.488C74.3295 349.911 73.7091 347.101 73.715 344.257C73.715 338.637 76.17 333.342 80.248 329.678C88.2375 338.174 97.9976 344.81 108.837 349.114V349.27C108.838 374.059 88.42 394.28 63.093 394.878Z" fill="black"/>
</svg>
